{"glyphs":{"\u0000":{"ha":109632,"x_min":0,"x_max":0,"o":""}," ":{"ha":238,"x_min":0,"x_max":0,"o":""},"A":{"ha":969,"x_min":-8,"x_max":974,"o":"m 469 955 l 674 380 l 274 380 l 469 955 m 858 0 l 514 966 l 571 966 q 613 871 591 925 q 670 727 636 817 q 756 502 704 638 q 882 166 807 366 q 938 52 910 99 q 974 0 966 5 l 858 0 m 147 0 l 264 350 l 684 350 l 810 0 l 653 0 q 672 32 661 8 q 683 89 683 55 q 680 119 683 102 q 669 157 678 136 l 619 301 l 300 301 l 249 157 q 240 123 243 139 q 238 94 238 107 q 255 33 238 57 q 284 0 273 10 l 147 0 m 100 0 l -8 0 q 29 50 0 5 q 84 166 59 95 l 321 822 q 330 854 326 835 q 333 894 335 873 q 321 933 331 914 q 288 966 311 952 l 425 966 l 100 0 m 345 430 l 569 430 l 455 738 l 345 430 z "},"B":{"ha":766,"x_min":5,"x_max":748,"o":"m 693 720 q 658 610 693 661 q 561 532 624 559 q 701 433 654 499 q 748 295 748 368 q 720 171 748 226 q 640 78 691 115 q 516 20 589 40 q 355 0 443 0 l 184 0 l 184 979 l 318 979 q 594 919 495 979 q 693 720 693 858 m 258 452 l 258 136 l 338 136 q 479 183 430 136 q 529 306 529 231 q 481 413 529 375 q 341 452 433 452 l 258 452 m 67 818 q 60 882 67 853 q 44 931 54 910 q 27 965 35 952 q 17 979 18 977 l 136 979 l 136 0 l 5 0 q 16 13 7 0 q 37 47 25 25 q 58 98 49 69 q 67 161 67 127 l 67 818 m 251 54 q 453 70 363 50 q 529 94 492 79 q 594 133 566 109 q 640 192 622 157 q 658 273 658 226 q 634 382 658 338 q 571 455 611 427 q 484 498 532 484 q 385 517 435 512 q 457 530 420 519 q 524 566 494 542 q 573 628 554 589 q 592 725 592 666 q 577 801 592 768 q 539 856 562 833 q 484 894 515 879 q 422 917 453 909 q 251 934 346 937 l 251 925 q 354 917 310 925 q 430 894 398 909 q 483 862 462 880 q 517 825 504 843 q 546 725 547 781 q 525 624 549 668 q 454 556 505 586 q 301 525 403 525 l 291 525 l 291 504 q 446 490 385 514 q 544 429 507 467 q 595 352 581 392 q 609 293 609 313 q 572 177 609 228 q 531 136 557 156 q 467 100 505 115 q 375 74 428 84 q 251 64 321 64 l 251 54 m 258 843 l 258 579 l 326 579 q 433 615 393 579 q 474 710 474 651 q 432 812 474 781 q 323 843 390 843 l 258 843 z "},"C":{"ha":820,"x_min":-2,"x_max":808,"o":"m 219 484 q 244 336 219 403 q 312 219 269 268 q 410 144 355 171 q 525 117 465 117 q 600 125 561 117 q 677 147 639 132 q 749 187 715 162 q 808 248 783 213 l 808 59 q 672 8 753 25 q 500 -10 591 -10 q 311 24 402 -10 q 151 123 221 59 q 40 279 82 187 q -2 484 -2 370 q 42 699 -2 604 q 157 858 85 793 q 320 958 229 924 q 505 992 410 992 q 681 974 609 992 q 797 932 753 955 l 797 731 q 684 829 756 797 q 522 862 612 862 q 404 835 459 862 q 308 759 350 808 q 243 640 266 710 q 219 484 219 571 m 492 42 q 368 76 422 52 q 277 133 315 100 q 213 205 239 166 q 172 283 187 244 q 136 484 136 375 q 172 681 136 591 q 213 758 187 720 q 277 830 239 797 q 368 889 315 863 q 492 925 422 914 l 492 935 q 288 863 378 919 q 213 807 249 840 q 147 727 176 773 q 100 621 119 681 q 82 484 82 561 q 100 346 82 407 q 147 240 119 286 q 213 161 176 194 q 288 104 249 127 q 492 32 378 49 l 492 42 z "},"D":{"ha":879,"x_min":0,"x_max":868,"o":"m 186 0 l 186 979 l 383 979 q 572 947 484 979 q 727 853 661 915 q 831 697 793 790 q 868 484 868 604 q 831 280 868 370 q 727 128 793 191 q 572 33 661 65 q 383 0 484 0 l 186 0 m 258 843 l 258 131 l 385 131 q 495 156 445 131 q 581 227 546 181 q 637 338 617 273 q 656 484 656 403 q 581 750 656 656 q 385 843 507 843 l 258 843 m 67 818 q 58 882 67 853 q 36 931 49 910 q 13 965 23 952 q 0 979 2 977 l 136 979 l 136 0 l 7 0 q 18 13 8 0 q 38 47 27 25 q 58 98 49 69 q 67 161 67 127 l 67 818 m 385 44 q 589 97 499 49 q 664 149 628 117 q 730 227 701 181 q 777 336 760 273 q 795 484 795 400 q 777 631 795 567 q 730 741 760 694 q 664 821 701 788 q 589 873 628 853 q 385 927 499 922 l 385 909 q 506 879 453 900 q 597 825 559 857 q 660 756 634 793 q 701 681 686 718 q 740 484 738 591 q 703 284 740 373 q 662 209 688 246 q 598 142 636 172 q 508 91 561 112 q 385 65 455 70 l 385 44 z "},"E":{"ha":641,"x_min":13,"x_max":631,"o":"m 397 919 q 522 904 464 912 q 624 880 581 897 l 629 788 l 631 760 q 561 820 611 797 q 443 843 512 843 l 254 843 l 254 569 l 448 569 q 537 587 495 569 q 592 617 579 604 l 592 520 l 186 504 l 186 979 l 621 979 l 622 919 l 397 919 m 186 0 l 186 499 l 592 482 l 592 393 q 577 402 591 395 q 544 418 564 410 q 499 432 524 425 q 448 438 474 438 l 254 438 l 254 136 l 443 136 q 561 159 512 136 q 631 219 611 182 l 629 191 l 624 99 q 522 74 581 82 q 397 60 464 67 l 622 60 l 621 0 l 186 0 m 136 0 l 13 0 q 23 14 15 2 q 41 48 32 27 q 57 97 50 69 q 64 161 64 126 l 64 818 q 57 882 64 853 q 41 931 50 910 q 23 965 32 952 q 13 979 15 977 l 136 979 l 136 0 z "},"F":{"ha":639,"x_min":7,"x_max":631,"o":"m 397 919 q 522 904 464 912 q 624 880 581 897 l 629 788 l 631 760 q 561 820 611 797 q 443 843 512 843 l 254 843 l 254 569 l 448 569 q 537 587 495 569 q 592 617 579 604 l 592 520 l 186 504 l 186 979 l 621 979 l 622 919 l 397 919 m 64 818 q 57 882 64 853 q 41 931 50 910 q 23 965 32 952 q 13 979 15 977 l 136 979 l 136 0 l 7 0 q 18 13 8 0 q 37 47 27 25 q 55 98 47 69 q 64 161 64 127 l 64 818 m 186 0 l 186 499 l 592 482 l 592 393 q 577 402 591 395 q 544 418 564 410 q 499 432 524 425 q 448 438 474 438 l 254 438 l 254 161 q 262 100 254 127 q 279 50 269 72 q 299 16 289 28 q 311 0 308 3 l 186 0 z "},"G":{"ha":930,"x_min":0,"x_max":929,"o":"m 797 191 l 797 489 l 929 489 q 896 445 919 480 q 873 346 873 410 l 873 94 q 703 15 803 40 q 500 -10 602 -10 q 311 24 402 -10 q 152 123 221 59 q 42 279 84 187 q 0 484 0 370 q 47 699 0 604 q 171 858 94 793 q 345 958 248 924 q 540 992 442 992 q 715 974 643 992 q 832 932 788 955 l 832 701 q 715 818 785 775 q 557 862 644 862 q 426 835 487 862 q 319 759 365 808 q 246 640 273 710 q 219 484 219 571 q 243 336 219 403 q 310 219 268 268 q 407 144 351 171 q 524 117 462 117 q 605 126 564 117 q 684 152 646 134 l 684 346 q 663 443 684 408 q 628 490 641 479 l 756 489 l 756 167 l 797 191 m 492 42 q 368 89 422 60 q 277 151 315 117 q 213 224 239 186 q 172 300 187 263 q 136 484 136 387 q 171 666 134 581 q 212 740 186 703 q 276 812 238 778 q 367 876 315 847 q 492 925 420 905 l 492 935 q 288 863 378 919 q 213 807 249 840 q 147 727 176 773 q 100 621 119 681 q 82 484 82 561 q 100 346 82 407 q 147 240 119 286 q 213 161 176 194 q 288 104 249 127 q 492 32 378 49 l 492 42 z "},"H":{"ha":900,"x_min":12,"x_max":894,"o":"m 191 0 l 191 497 l 715 497 l 715 0 l 586 0 q 597 13 587 0 q 616 47 606 25 q 634 98 626 69 q 643 161 643 127 l 643 448 l 259 448 l 259 161 q 267 100 259 127 q 284 50 274 72 q 304 16 295 28 q 316 0 313 3 l 191 0 m 259 577 l 643 577 l 643 818 q 636 882 643 853 q 620 931 629 910 q 602 965 611 952 q 592 979 594 977 l 715 979 l 715 530 l 191 530 l 191 979 l 320 979 q 306 963 316 976 q 286 930 296 950 q 268 880 276 909 q 259 818 259 852 l 259 577 m 69 818 q 62 882 69 853 q 46 931 55 910 q 28 965 37 952 q 18 979 20 977 l 141 979 l 141 0 l 12 0 q 23 13 13 0 q 42 47 32 25 q 60 98 52 69 q 69 161 69 127 l 69 818 m 833 161 q 841 100 833 127 q 858 50 848 72 q 878 16 868 28 q 890 0 887 3 l 765 0 l 765 979 l 894 979 q 880 963 890 976 q 860 930 870 950 q 842 880 850 909 q 833 818 833 852 l 833 161 z "},"I":{"ha":313,"x_min":7,"x_max":315,"o":"m 64 818 q 57 882 64 853 q 41 931 50 910 q 23 965 32 952 q 13 979 15 977 l 136 979 l 136 0 l 7 0 q 18 13 8 0 q 37 47 27 25 q 55 98 47 69 q 64 161 64 127 l 64 818 m 254 161 q 262 100 254 127 q 279 50 269 72 q 299 16 289 28 q 311 0 308 3 l 186 0 l 186 979 l 315 979 q 301 963 311 976 q 281 930 291 950 q 263 880 271 909 q 254 818 254 852 l 254 161 z "},"J":{"ha":313,"x_min":-152,"x_max":313,"o":"m 136 94 q 90 -97 136 -27 q -57 -167 45 -167 l -55 -179 q 121 -120 57 -191 q 186 94 186 -49 l 186 979 l 313 979 q 300 963 310 976 q 281 930 291 950 q 263 880 271 909 q 254 818 254 852 l 254 112 q 228 -57 254 10 q 163 -164 202 -124 q 80 -220 124 -204 q 2 -236 37 -236 q -92 -211 -55 -236 q -152 -142 -129 -186 q -79 -131 -117 -142 q -10 -91 -42 -120 q 43 -9 22 -62 q 64 127 64 44 l 64 818 q 57 882 64 853 q 41 931 50 910 q 23 965 32 952 q 13 979 15 977 l 136 979 l 136 94 z "},"K":{"ha":867,"x_min":7,"x_max":877,"o":"m 671 0 l 487 0 q 514 26 505 12 q 522 54 522 40 q 495 122 522 80 q 374 290 430 206 q 254 460 318 375 l 254 161 q 262 100 254 127 q 279 50 269 72 q 299 16 289 28 q 311 0 308 3 l 186 0 l 186 979 l 315 979 q 301 963 311 976 q 281 930 291 950 q 263 880 271 909 q 254 818 254 852 l 254 535 l 510 857 q 535 895 529 879 q 540 924 540 912 q 532 954 540 937 q 510 979 524 971 l 656 979 l 300 515 l 671 0 m 353 522 l 703 979 l 818 979 q 790 961 808 974 q 749 930 771 949 q 703 889 726 912 q 658 840 679 865 l 432 540 q 576 339 510 435 q 720 137 641 243 q 761 91 736 114 q 807 50 785 69 q 849 18 830 32 q 877 0 868 5 l 738 0 l 353 522 m 64 818 q 57 882 64 853 q 41 931 50 910 q 23 965 32 952 q 13 979 15 977 l 136 979 l 136 0 l 7 0 q 18 13 8 0 q 37 47 27 25 q 55 98 47 69 q 64 161 64 127 l 64 818 z "},"L":{"ha":634,"x_min":7,"x_max":631,"o":"m 622 60 l 621 0 l 186 0 l 186 979 l 311 979 q 299 963 308 976 q 279 929 289 950 q 262 879 269 907 q 254 818 254 852 l 254 136 l 443 136 q 561 159 512 136 q 631 219 611 182 l 629 191 l 624 99 q 522 74 581 82 q 397 60 464 67 l 622 60 m 64 818 q 55 881 64 852 q 37 932 47 910 q 18 966 27 954 q 7 979 8 979 l 136 979 l 136 0 l 13 0 q 23 14 15 2 q 41 48 32 27 q 57 97 50 69 q 64 161 64 126 l 64 818 z "},"M":{"ha":1160,"x_min":8,"x_max":1146,"o":"m 1011 0 l 1011 942 l 942 942 l 576 137 l 157 939 l 117 939 l 117 0 l 8 0 q 19 13 10 0 q 39 47 28 25 q 59 98 50 69 q 67 161 67 127 l 67 818 q 60 882 67 853 q 44 931 54 910 q 27 965 35 952 q 17 979 18 977 l 214 979 l 586 281 q 771 711 691 532 q 889 979 852 890 l 1123 979 q 1112 965 1119 977 q 1095 931 1104 952 q 1079 882 1086 910 q 1073 818 1073 853 l 1073 161 q 1084 98 1073 127 q 1108 47 1094 69 q 1133 13 1121 25 q 1146 0 1145 0 l 1011 0 m 157 0 l 157 860 l 554 52 l 577 52 l 957 887 l 957 0 l 832 0 q 842 15 833 2 q 859 49 850 28 q 875 99 868 70 q 882 161 882 127 l 882 604 q 792 414 835 510 q 715 234 750 318 q 655 88 679 151 q 621 0 631 25 l 504 0 q 481 50 497 17 q 443 126 465 84 q 396 218 422 169 q 343 316 370 268 q 254 497 286 423 q 206 604 221 571 l 206 161 q 213 99 206 127 q 228 49 219 70 q 243 15 236 28 q 254 0 251 2 l 157 0 z "},"N":{"ha":907,"x_min":28,"x_max":867,"o":"m 807 0 l 735 0 l 229 639 l 229 161 q 236 99 229 127 q 251 49 243 70 q 267 15 259 28 q 278 0 274 2 l 181 0 l 181 852 l 758 35 l 758 979 l 867 979 q 853 963 863 976 q 833 930 843 950 q 816 880 823 909 q 808 818 808 852 l 807 0 m 678 818 q 670 882 678 853 q 654 931 663 910 q 637 965 646 952 q 626 979 628 977 l 728 979 l 728 174 l 159 979 l 192 979 q 266 890 221 944 q 361 775 311 837 q 464 648 412 713 q 561 528 517 584 q 637 429 606 472 q 678 368 668 387 l 678 818 m 94 979 l 146 904 l 146 0 l 44 0 l 57 17 q 78 55 60 18 q 95 161 95 92 l 95 818 q 86 882 95 853 q 64 931 77 910 q 41 965 52 952 q 28 979 30 977 l 94 979 z "},"O":{"ha":984,"x_min":0,"x_max":969,"o":"m 0 484 q 38 699 0 604 q 144 858 77 793 q 298 958 211 924 q 484 992 385 992 q 673 958 584 992 q 827 858 761 924 q 931 699 894 793 q 969 484 969 604 q 931 279 969 370 q 827 123 894 187 q 673 24 761 59 q 484 -10 584 -10 q 298 24 385 -10 q 144 123 211 59 q 38 279 77 187 q 0 484 0 370 m 82 484 q 108 299 82 375 q 173 173 134 223 q 260 96 213 124 q 352 54 308 69 q 433 38 397 40 q 484 35 469 35 q 688 85 597 38 q 763 137 726 105 q 829 217 800 169 q 876 330 858 264 q 894 484 894 397 q 870 660 894 586 q 810 785 847 735 q 727 866 773 835 q 636 914 681 897 q 552 935 591 930 q 490 940 514 940 l 485 940 l 484 940 q 376 926 443 940 q 243 865 308 912 q 130 727 177 818 q 82 484 82 636 m 129 484 q 171 699 132 604 q 213 778 187 740 q 276 848 238 817 q 366 897 315 879 q 487 915 418 915 q 608 897 556 915 q 699 848 661 879 q 762 778 736 817 q 805 699 788 740 q 847 484 843 604 q 808 274 847 366 q 766 198 791 236 q 701 131 740 161 q 610 84 663 102 q 487 65 557 65 q 365 84 417 65 q 274 131 313 102 q 211 198 236 161 q 169 274 186 236 q 129 484 131 366 m 211 484 q 232 336 211 403 q 289 222 253 269 q 375 148 325 174 q 485 122 425 122 q 596 148 546 122 q 682 222 646 174 q 737 336 718 269 q 756 484 756 403 q 737 638 756 569 q 682 756 718 708 q 596 831 646 805 q 485 857 546 857 q 375 831 425 857 q 289 756 325 805 q 232 638 253 708 q 211 484 211 569 z "},"P":{"ha":698,"x_min":7,"x_max":703,"o":"m 254 371 l 254 161 q 262 100 254 127 q 279 50 269 72 q 299 16 289 28 q 311 0 308 3 l 186 0 l 186 979 l 315 979 q 469 958 398 976 q 592 903 540 940 q 674 807 644 865 q 703 666 703 748 q 672 540 703 594 q 586 448 641 485 q 455 391 530 410 q 291 371 380 371 l 254 371 m 64 818 q 57 882 64 853 q 41 931 50 910 q 23 965 32 952 q 13 979 15 977 l 136 979 l 136 0 l 7 0 q 18 13 8 0 q 37 47 27 25 q 55 98 47 69 q 64 161 64 127 l 64 818 m 254 843 l 254 504 l 293 504 q 439 547 388 504 q 490 666 490 591 q 439 803 490 763 q 293 843 388 843 l 254 843 m 251 427 q 440 445 356 422 q 510 473 475 455 q 570 518 544 490 q 612 584 596 546 q 629 676 629 622 q 612 768 629 730 q 570 834 596 807 q 510 880 544 862 q 440 909 475 899 q 251 929 356 932 l 251 919 q 365 908 316 919 q 448 880 413 897 q 507 841 484 863 q 546 797 530 818 q 577 676 579 743 q 547 557 579 609 q 510 515 534 535 q 452 477 487 494 q 367 450 417 460 q 251 440 318 440 l 251 427 z "},"Q":{"ha":986,"x_min":0,"x_max":1009,"o":"m 1006 -52 q 993 -126 1009 -95 q 951 -177 977 -157 q 894 -207 925 -197 q 832 -218 862 -218 q 658 -171 751 -218 q 487 -10 566 -124 l 484 -10 q 298 24 385 -10 q 144 123 211 59 q 38 279 77 187 q 0 484 0 370 q 38 699 0 604 q 144 858 77 793 q 298 958 211 924 q 484 992 385 992 q 673 958 584 992 q 827 858 761 924 q 931 699 894 793 q 969 484 969 604 q 947 327 969 400 q 885 196 925 254 q 791 94 845 137 q 671 25 736 50 q 776 -54 713 -30 q 902 -79 840 -79 q 951 -74 920 -79 q 1006 -52 982 -69 m 213 484 q 233 336 213 403 q 289 222 253 269 q 376 148 326 174 q 485 122 425 122 q 596 148 546 122 q 682 222 646 174 q 737 336 718 269 q 756 484 756 403 q 737 638 756 569 q 682 756 718 708 q 596 831 646 805 q 485 857 546 857 q 376 831 425 857 q 289 756 326 805 q 233 638 253 708 q 213 484 213 569 m 129 484 q 171 699 132 604 q 213 778 187 740 q 276 848 238 817 q 366 897 315 879 q 487 915 418 915 q 608 897 556 915 q 699 848 661 879 q 762 778 736 817 q 805 699 788 740 q 847 484 843 604 q 808 274 847 366 q 766 198 791 236 q 701 131 740 161 q 610 84 663 102 q 487 65 557 65 q 365 84 417 65 q 274 131 313 102 q 211 198 236 161 q 169 274 186 236 q 129 484 131 366 m 549 -3 q 569 -28 549 -3 q 625 -83 589 -54 q 712 -137 661 -112 q 827 -162 763 -162 q 904 -152 875 -162 q 949 -129 934 -142 q 974 -95 967 -114 q 935 -112 955 -105 q 894 -124 917 -119 q 848 -129 872 -129 q 786 -122 815 -129 q 725 -100 756 -115 q 662 -59 694 -85 q 591 5 629 -33 q 568 27 577 18 q 551 40 559 35 q 653 69 594 47 q 766 140 713 90 q 857 272 820 189 q 894 484 894 355 q 870 660 894 586 q 810 785 847 735 q 727 866 773 835 q 636 914 681 897 q 552 935 591 930 q 490 940 514 940 l 484 940 q 376 926 443 940 q 243 865 308 912 q 130 727 177 818 q 82 484 82 636 q 108 299 82 375 q 173 173 134 223 q 260 96 213 124 q 352 54 308 69 q 433 38 397 40 q 484 35 469 35 q 515 28 502 35 q 549 -3 529 20 z "},"R":{"ha":812,"x_min":13,"x_max":825,"o":"m 251 427 q 284 425 266 425 q 322 427 301 425 q 368 432 343 428 l 646 0 l 465 0 q 489 28 479 10 q 499 65 499 47 q 479 122 499 89 q 396 254 438 187 q 311 388 353 320 l 258 388 l 258 161 q 264 100 258 127 q 279 50 271 72 q 297 16 288 28 q 310 0 306 3 l 186 0 l 186 979 l 308 979 q 460 961 390 979 q 581 908 530 944 q 662 815 633 872 q 691 679 691 758 q 679 595 691 636 q 643 519 666 554 q 587 457 619 484 q 517 415 556 430 q 603 277 557 350 q 689 137 649 204 q 725 92 704 114 q 763 52 745 70 q 798 20 781 33 q 825 0 815 7 l 696 0 l 418 440 q 493 465 455 448 q 561 510 530 482 q 610 578 591 537 q 629 676 629 619 q 612 768 629 730 q 570 834 596 807 q 510 880 544 862 q 440 909 475 899 q 251 929 356 932 l 251 919 q 365 908 316 919 q 448 880 413 897 q 507 841 484 863 q 546 797 530 818 q 577 676 579 743 q 547 557 579 609 q 510 515 534 535 q 452 477 487 494 q 367 450 417 460 q 251 440 318 440 l 251 427 m 65 818 q 59 882 65 853 q 43 931 52 910 q 25 965 33 952 q 15 979 17 977 l 136 979 l 136 0 l 13 0 q 23 13 15 0 q 41 47 32 25 q 58 98 50 69 q 65 161 65 127 l 65 818 m 258 843 l 258 520 l 295 520 q 434 567 390 520 q 479 679 479 614 q 436 804 479 765 q 310 843 393 843 l 258 843 z "},"S":{"ha":663,"x_min":10,"x_max":659,"o":"m 457 243 q 443 299 457 274 q 409 342 430 323 q 360 377 388 361 q 301 408 331 393 q 200 463 251 432 q 108 534 149 494 q 41 622 67 574 q 15 731 15 671 q 39 836 15 788 q 107 919 64 884 q 209 973 151 954 q 338 992 268 992 q 500 974 435 992 q 606 932 566 955 l 606 770 l 606 740 q 571 781 596 760 q 515 821 547 803 q 447 850 484 838 q 377 862 410 862 q 256 829 295 862 q 218 755 218 797 q 233 707 218 730 q 272 664 248 684 q 328 625 296 644 q 393 589 360 606 q 497 527 448 559 q 581 456 546 495 q 638 370 617 417 q 659 264 659 323 q 633 151 659 202 q 558 61 606 99 q 446 3 510 23 q 305 -18 382 -18 q 135 0 204 -18 q 25 40 65 18 l 10 221 l 10 241 q 53 197 22 219 q 121 155 84 174 q 200 124 159 136 q 274 112 241 112 q 352 124 318 112 q 410 154 387 136 q 445 196 433 172 q 457 243 457 219 m 321 45 q 341 45 321 44 q 389 54 360 47 q 452 76 418 62 q 515 115 485 90 q 563 175 544 139 q 582 263 582 211 q 558 341 582 303 q 500 410 534 378 q 430 467 467 442 q 366 507 393 492 l 328 529 q 269 561 303 540 q 206 610 236 582 q 155 671 176 638 q 134 743 134 704 q 166 853 134 813 q 239 914 199 892 q 345 947 284 939 l 345 954 q 325 953 345 954 q 277 945 306 952 q 214 923 248 937 q 151 884 181 909 q 103 824 122 860 q 84 736 84 788 q 107 658 84 696 q 165 589 131 621 q 236 531 199 557 q 300 490 273 505 l 338 470 q 397 436 363 457 q 460 387 430 415 q 511 326 490 360 q 532 256 532 293 q 499 146 532 186 q 427 85 465 107 q 321 52 380 60 l 321 45 z "},"T":{"ha":776,"x_min":2,"x_max":773,"o":"m 5 897 q 161 914 79 907 q 330 924 243 920 l 5 924 l 7 979 l 363 979 l 363 0 l 236 0 q 247 13 238 0 q 267 46 256 25 q 286 96 278 67 q 295 161 295 126 l 295 843 l 187 843 q 131 840 156 843 q 84 827 105 837 q 42 798 62 817 q 2 750 22 780 l 5 897 m 450 924 q 617 915 535 920 q 770 897 698 910 l 773 756 q 732 803 751 786 q 692 829 713 820 q 646 841 671 838 q 589 843 621 843 l 484 843 l 484 161 q 493 99 484 127 q 515 49 502 70 q 537 15 527 28 q 551 0 547 2 l 415 0 l 415 979 l 770 979 l 770 924 l 450 924 z "},"U":{"ha":904,"x_min":17,"x_max":889,"o":"m 146 296 q 176 172 146 226 q 255 85 206 117 q 367 47 305 54 q 495 65 430 40 q 382 69 437 60 q 284 106 326 79 q 215 180 241 134 q 189 296 189 226 l 189 979 l 318 979 q 305 963 315 976 q 284 930 295 950 q 266 880 274 909 q 258 818 258 852 l 258 331 q 302 179 258 236 q 437 122 346 122 q 544 142 485 122 q 643 191 602 162 l 643 818 q 635 882 643 853 q 619 931 628 910 q 602 965 611 952 q 592 979 594 977 l 718 979 l 718 0 l 659 0 l 646 77 q 587 39 619 55 q 520 13 554 23 q 455 -4 487 2 q 398 -10 423 -10 q 241 15 305 -10 q 139 85 177 40 q 84 192 100 131 q 67 326 67 253 l 67 818 q 60 882 67 853 q 44 931 54 910 q 27 965 35 952 q 17 979 18 977 l 146 979 l 146 296 m 765 0 l 765 979 l 880 979 q 869 963 877 976 q 854 930 862 950 q 840 880 847 909 q 833 818 833 852 l 833 161 q 841 99 833 127 q 858 49 848 70 q 877 15 868 28 q 889 0 885 2 l 765 0 z "},"V":{"ha":967,"x_min":-23,"x_max":976,"o":"m 428 0 l 84 813 q 52 876 69 847 q 19 928 35 905 q -8 964 3 950 q -23 979 -20 977 l 100 979 l 485 15 l 862 979 l 976 979 q 961 964 972 977 q 933 929 949 950 q 899 878 917 907 q 867 813 882 848 q 738 510 791 638 q 646 289 684 383 q 578 127 607 196 q 524 0 549 59 l 428 0 m 490 129 l 151 979 l 323 979 q 300 945 316 971 q 284 889 284 919 q 296 823 284 858 l 500 296 l 706 823 q 718 889 718 858 q 711 922 718 905 q 696 951 704 939 q 681 971 688 964 q 673 979 674 979 l 823 979 l 490 129 z "},"W":{"ha":1354,"x_min":-13,"x_max":1362,"o":"m 1099 889 q 1085 945 1099 919 q 1063 979 1071 971 l 1208 979 l 954 120 l 686 937 l 418 115 l 152 979 l 320 979 q 296 945 311 971 q 281 890 281 920 q 293 822 281 858 l 430 346 l 644 979 l 740 979 l 950 345 l 1089 822 q 1099 889 1099 857 m 679 803 l 944 0 l 875 0 l 669 574 q 597 372 628 459 q 542 219 566 286 q 500 100 519 152 q 467 0 482 47 l 415 0 l 679 803 m 104 979 l 407 0 l 340 0 l 72 813 q 46 878 60 848 q 19 929 32 907 q -3 964 7 950 q -13 979 -12 977 l 104 979 m 950 0 l 1245 979 l 1362 979 q 1348 963 1359 976 q 1324 929 1337 950 q 1295 878 1310 907 q 1268 813 1280 848 q 1162 497 1205 629 q 1089 270 1119 365 q 1039 112 1059 176 q 1001 0 1019 49 l 950 0 z "},"X":{"ha":964,"x_min":12,"x_max":961,"o":"m 157 979 l 455 500 l 105 0 l 12 0 q 66 56 40 23 q 126 137 92 89 l 370 485 l 142 842 q 74 930 112 894 q 13 979 35 967 l 157 979 m 515 512 l 842 979 l 937 979 q 884 930 919 971 q 817 842 850 890 l 592 529 l 843 137 q 909 49 875 89 q 961 0 942 8 l 837 0 l 515 512 m 157 0 l 480 462 l 770 0 l 594 0 q 612 25 602 5 q 622 64 622 45 q 618 90 622 77 q 602 122 614 104 q 530 236 562 186 q 457 350 497 286 l 295 122 q 275 86 281 100 q 269 59 269 72 q 280 28 269 44 q 308 0 291 12 l 157 0 m 492 552 l 224 979 l 403 979 q 379 954 395 974 q 363 915 363 934 q 367 889 363 904 q 383 855 371 873 l 383 857 q 445 759 418 800 q 509 663 472 718 l 646 857 q 664 893 658 877 q 671 920 671 909 q 661 953 671 937 q 634 979 651 969 l 790 979 l 492 552 z "},"Y":{"ha":914,"x_min":-7,"x_max":919,"o":"m 95 842 q 38 925 67 887 q -7 979 10 964 l 115 979 l 438 422 l 438 0 l 305 0 q 315 13 306 0 q 335 47 325 25 q 353 98 345 69 q 361 161 361 127 l 361 388 l 95 843 l 95 842 m 469 464 l 174 979 l 326 979 q 315 952 323 971 q 306 915 306 934 q 323 855 306 889 l 321 857 l 484 592 l 649 855 l 648 855 q 663 914 663 890 q 653 954 663 932 q 639 979 643 976 l 775 979 l 469 464 m 818 979 l 919 979 q 902 963 914 976 q 874 932 890 950 q 840 890 858 914 q 807 842 822 867 l 807 843 l 552 390 l 552 161 q 561 99 552 127 q 581 49 569 70 q 602 15 592 28 q 614 0 611 2 l 492 0 l 492 422 l 818 979 z "},"Z":{"ha":783,"x_min":-2,"x_max":770,"o":"m 69 0 l 733 979 l 770 979 l 770 887 q 724 813 756 862 q 645 699 691 765 q 541 554 599 634 q 418 383 484 474 l 243 136 l 586 136 q 643 139 617 136 q 689 151 668 142 q 730 179 711 161 q 770 228 750 197 l 766 95 q 535 67 661 75 q 271 55 408 59 l 766 55 l 766 0 l 69 0 m 18 0 l -2 0 l 0 109 q 63 206 18 141 q 167 357 107 271 q 299 543 228 443 q 442 743 370 643 l 440 743 q 476 792 462 773 q 512 843 490 812 l 184 843 q 127 841 152 843 q 81 829 102 838 q 41 803 60 820 q 0 756 22 786 l 2 885 q 234 913 102 904 q 514 929 366 922 l 2 929 l 3 979 l 681 979 l 18 0 z "},"a":{"ha":969,"x_min":-8,"x_max":974,"o":"m 469 955 l 674 380 l 274 380 l 469 955 m 858 0 l 514 966 l 571 966 q 613 871 591 925 q 670 727 636 817 q 756 502 704 638 q 882 166 807 366 q 938 52 910 99 q 974 0 966 5 l 858 0 m 147 0 l 264 350 l 684 350 l 810 0 l 653 0 q 672 32 661 8 q 683 89 683 55 q 680 119 683 102 q 669 157 678 136 l 619 301 l 300 301 l 249 157 q 240 123 243 139 q 238 94 238 107 q 255 33 238 57 q 284 0 273 10 l 147 0 m 100 0 l -8 0 q 29 50 0 5 q 84 166 59 95 l 321 822 q 330 854 326 835 q 333 894 335 873 q 321 933 331 914 q 288 966 311 952 l 425 966 l 100 0 m 345 430 l 569 430 l 455 738 l 345 430 z "},"b":{"ha":766,"x_min":5,"x_max":748,"o":"m 693 720 q 658 610 693 661 q 561 532 624 559 q 701 433 654 499 q 748 295 748 368 q 720 171 748 226 q 640 78 691 115 q 516 20 589 40 q 355 0 443 0 l 184 0 l 184 979 l 318 979 q 594 919 495 979 q 693 720 693 858 m 258 452 l 258 136 l 338 136 q 479 183 430 136 q 529 306 529 231 q 481 413 529 375 q 341 452 433 452 l 258 452 m 67 818 q 60 882 67 853 q 44 931 54 910 q 27 965 35 952 q 17 979 18 977 l 136 979 l 136 0 l 5 0 q 16 13 7 0 q 37 47 25 25 q 58 98 49 69 q 67 161 67 127 l 67 818 m 251 54 q 453 70 363 50 q 529 94 492 79 q 594 133 566 109 q 640 192 622 157 q 658 273 658 226 q 634 382 658 338 q 571 455 611 427 q 484 498 532 484 q 385 517 435 512 q 457 530 420 519 q 524 566 494 542 q 573 628 554 589 q 592 725 592 666 q 577 801 592 768 q 539 856 562 833 q 484 894 515 879 q 422 917 453 909 q 251 934 346 937 l 251 925 q 354 917 310 925 q 430 894 398 909 q 483 862 462 880 q 517 825 504 843 q 546 725 547 781 q 525 624 549 668 q 454 556 505 586 q 301 525 403 525 l 291 525 l 291 504 q 446 490 385 514 q 544 429 507 467 q 595 352 581 392 q 609 293 609 313 q 572 177 609 228 q 531 136 557 156 q 467 100 505 115 q 375 74 428 84 q 251 64 321 64 l 251 54 m 258 843 l 258 579 l 326 579 q 433 615 393 579 q 474 710 474 651 q 432 812 474 781 q 323 843 390 843 l 258 843 z "},"c":{"ha":820,"x_min":-2,"x_max":808,"o":"m 219 484 q 244 336 219 403 q 312 219 269 268 q 410 144 355 171 q 525 117 465 117 q 600 125 561 117 q 677 147 639 132 q 749 187 715 162 q 808 248 783 213 l 808 59 q 672 8 753 25 q 500 -10 591 -10 q 311 24 402 -10 q 151 123 221 59 q 40 279 82 187 q -2 484 -2 370 q 42 699 -2 604 q 157 858 85 793 q 320 958 229 924 q 505 992 410 992 q 681 974 609 992 q 797 932 753 955 l 797 731 q 684 829 756 797 q 522 862 612 862 q 404 835 459 862 q 308 759 350 808 q 243 640 266 710 q 219 484 219 571 m 492 42 q 368 76 422 52 q 277 133 315 100 q 213 205 239 166 q 172 283 187 244 q 136 484 136 375 q 172 681 136 591 q 213 758 187 720 q 277 830 239 797 q 368 889 315 863 q 492 925 422 914 l 492 935 q 288 863 378 919 q 213 807 249 840 q 147 727 176 773 q 100 621 119 681 q 82 484 82 561 q 100 346 82 407 q 147 240 119 286 q 213 161 176 194 q 288 104 249 127 q 492 32 378 49 l 492 42 z "},"d":{"ha":879,"x_min":0,"x_max":868,"o":"m 186 0 l 186 979 l 383 979 q 572 947 484 979 q 727 853 661 915 q 831 697 793 790 q 868 484 868 604 q 831 280 868 370 q 727 128 793 191 q 572 33 661 65 q 383 0 484 0 l 186 0 m 258 843 l 258 131 l 385 131 q 495 156 445 131 q 581 227 546 181 q 637 338 617 273 q 656 484 656 403 q 581 750 656 656 q 385 843 507 843 l 258 843 m 67 818 q 58 882 67 853 q 36 931 49 910 q 13 965 23 952 q 0 979 2 977 l 136 979 l 136 0 l 7 0 q 18 13 8 0 q 38 47 27 25 q 58 98 49 69 q 67 161 67 127 l 67 818 m 385 44 q 589 97 499 49 q 664 149 628 117 q 730 227 701 181 q 777 336 760 273 q 795 484 795 400 q 777 631 795 567 q 730 741 760 694 q 664 821 701 788 q 589 873 628 853 q 385 927 499 922 l 385 909 q 506 879 453 900 q 597 825 559 857 q 660 756 634 793 q 701 681 686 718 q 740 484 738 591 q 703 284 740 373 q 662 209 688 246 q 598 142 636 172 q 508 91 561 112 q 385 65 455 70 l 385 44 z "},"e":{"ha":641,"x_min":13,"x_max":631,"o":"m 397 919 q 522 904 464 912 q 624 880 581 897 l 629 788 l 631 760 q 561 820 611 797 q 443 843 512 843 l 254 843 l 254 569 l 448 569 q 537 587 495 569 q 592 617 579 604 l 592 520 l 186 504 l 186 979 l 621 979 l 622 919 l 397 919 m 186 0 l 186 499 l 592 482 l 592 393 q 577 402 591 395 q 544 418 564 410 q 499 432 524 425 q 448 438 474 438 l 254 438 l 254 136 l 443 136 q 561 159 512 136 q 631 219 611 182 l 629 191 l 624 99 q 522 74 581 82 q 397 60 464 67 l 622 60 l 621 0 l 186 0 m 136 0 l 13 0 q 23 14 15 2 q 41 48 32 27 q 57 97 50 69 q 64 161 64 126 l 64 818 q 57 882 64 853 q 41 931 50 910 q 23 965 32 952 q 13 979 15 977 l 136 979 l 136 0 z "},"f":{"ha":639,"x_min":7,"x_max":631,"o":"m 397 919 q 522 904 464 912 q 624 880 581 897 l 629 788 l 631 760 q 561 820 611 797 q 443 843 512 843 l 254 843 l 254 569 l 448 569 q 537 587 495 569 q 592 617 579 604 l 592 520 l 186 504 l 186 979 l 621 979 l 622 919 l 397 919 m 64 818 q 57 882 64 853 q 41 931 50 910 q 23 965 32 952 q 13 979 15 977 l 136 979 l 136 0 l 7 0 q 18 13 8 0 q 37 47 27 25 q 55 98 47 69 q 64 161 64 127 l 64 818 m 186 0 l 186 499 l 592 482 l 592 393 q 577 402 591 395 q 544 418 564 410 q 499 432 524 425 q 448 438 474 438 l 254 438 l 254 161 q 262 100 254 127 q 279 50 269 72 q 299 16 289 28 q 311 0 308 3 l 186 0 z "},"g":{"ha":930,"x_min":0,"x_max":929,"o":"m 797 191 l 797 489 l 929 489 q 896 445 919 480 q 873 346 873 410 l 873 94 q 703 15 803 40 q 500 -10 602 -10 q 311 24 402 -10 q 152 123 221 59 q 42 279 84 187 q 0 484 0 370 q 47 699 0 604 q 171 858 94 793 q 345 958 248 924 q 540 992 442 992 q 715 974 643 992 q 832 932 788 955 l 832 701 q 715 818 785 775 q 557 862 644 862 q 426 835 487 862 q 319 759 365 808 q 246 640 273 710 q 219 484 219 571 q 243 336 219 403 q 310 219 268 268 q 407 144 351 171 q 524 117 462 117 q 605 126 564 117 q 684 152 646 134 l 684 346 q 663 443 684 408 q 628 490 641 479 l 756 489 l 756 167 l 797 191 m 492 42 q 368 89 422 60 q 277 151 315 117 q 213 224 239 186 q 172 300 187 263 q 136 484 136 387 q 171 666 134 581 q 212 740 186 703 q 276 812 238 778 q 367 876 315 847 q 492 925 420 905 l 492 935 q 288 863 378 919 q 213 807 249 840 q 147 727 176 773 q 100 621 119 681 q 82 484 82 561 q 100 346 82 407 q 147 240 119 286 q 213 161 176 194 q 288 104 249 127 q 492 32 378 49 l 492 42 z "},"h":{"ha":900,"x_min":12,"x_max":894,"o":"m 191 0 l 191 497 l 715 497 l 715 0 l 586 0 q 597 13 587 0 q 616 47 606 25 q 634 98 626 69 q 643 161 643 127 l 643 448 l 259 448 l 259 161 q 267 100 259 127 q 284 50 274 72 q 304 16 295 28 q 316 0 313 3 l 191 0 m 259 577 l 643 577 l 643 818 q 636 882 643 853 q 620 931 629 910 q 602 965 611 952 q 592 979 594 977 l 715 979 l 715 530 l 191 530 l 191 979 l 320 979 q 306 963 316 976 q 286 930 296 950 q 268 880 276 909 q 259 818 259 852 l 259 577 m 69 818 q 62 882 69 853 q 46 931 55 910 q 28 965 37 952 q 18 979 20 977 l 141 979 l 141 0 l 12 0 q 23 13 13 0 q 42 47 32 25 q 60 98 52 69 q 69 161 69 127 l 69 818 m 833 161 q 841 100 833 127 q 858 50 848 72 q 878 16 868 28 q 890 0 887 3 l 765 0 l 765 979 l 894 979 q 880 963 890 976 q 860 930 870 950 q 842 880 850 909 q 833 818 833 852 l 833 161 z "},"i":{"ha":313,"x_min":7,"x_max":315,"o":"m 64 818 q 57 882 64 853 q 41 931 50 910 q 23 965 32 952 q 13 979 15 977 l 136 979 l 136 0 l 7 0 q 18 13 8 0 q 37 47 27 25 q 55 98 47 69 q 64 161 64 127 l 64 818 m 254 161 q 262 100 254 127 q 279 50 269 72 q 299 16 289 28 q 311 0 308 3 l 186 0 l 186 979 l 315 979 q 301 963 311 976 q 281 930 291 950 q 263 880 271 909 q 254 818 254 852 l 254 161 z "},"j":{"ha":313,"x_min":-152,"x_max":313,"o":"m 136 94 q 90 -97 136 -27 q -57 -167 45 -167 l -55 -179 q 121 -120 57 -191 q 186 94 186 -49 l 186 979 l 313 979 q 300 963 310 976 q 281 930 291 950 q 263 880 271 909 q 254 818 254 852 l 254 112 q 228 -57 254 10 q 163 -164 202 -124 q 80 -220 124 -204 q 2 -236 37 -236 q -92 -211 -55 -236 q -152 -142 -129 -186 q -79 -131 -117 -142 q -10 -91 -42 -120 q 43 -9 22 -62 q 64 127 64 44 l 64 818 q 57 882 64 853 q 41 931 50 910 q 23 965 32 952 q 13 979 15 977 l 136 979 l 136 94 z "},"k":{"ha":867,"x_min":7,"x_max":877,"o":"m 671 0 l 487 0 q 514 26 505 12 q 522 54 522 40 q 495 122 522 80 q 374 290 430 206 q 254 460 318 375 l 254 161 q 262 100 254 127 q 279 50 269 72 q 299 16 289 28 q 311 0 308 3 l 186 0 l 186 979 l 315 979 q 301 963 311 976 q 281 930 291 950 q 263 880 271 909 q 254 818 254 852 l 254 535 l 510 857 q 535 895 529 879 q 540 924 540 912 q 532 954 540 937 q 510 979 524 971 l 656 979 l 300 515 l 671 0 m 353 522 l 703 979 l 818 979 q 790 961 808 974 q 749 930 771 949 q 703 889 726 912 q 658 840 679 865 l 432 540 q 576 339 510 435 q 720 137 641 243 q 761 91 736 114 q 807 50 785 69 q 849 18 830 32 q 877 0 868 5 l 738 0 l 353 522 m 64 818 q 57 882 64 853 q 41 931 50 910 q 23 965 32 952 q 13 979 15 977 l 136 979 l 136 0 l 7 0 q 18 13 8 0 q 37 47 27 25 q 55 98 47 69 q 64 161 64 127 l 64 818 z "},"l":{"ha":634,"x_min":7,"x_max":631,"o":"m 622 60 l 621 0 l 186 0 l 186 979 l 311 979 q 299 963 308 976 q 279 929 289 950 q 262 879 269 907 q 254 818 254 852 l 254 136 l 443 136 q 561 159 512 136 q 631 219 611 182 l 629 191 l 624 99 q 522 74 581 82 q 397 60 464 67 l 622 60 m 64 818 q 55 881 64 852 q 37 932 47 910 q 18 966 27 954 q 7 979 8 979 l 136 979 l 136 0 l 13 0 q 23 14 15 2 q 41 48 32 27 q 57 97 50 69 q 64 161 64 126 l 64 818 z "},"m":{"ha":1160,"x_min":8,"x_max":1146,"o":"m 1011 0 l 1011 942 l 942 942 l 576 137 l 157 939 l 117 939 l 117 0 l 8 0 q 19 13 10 0 q 39 47 28 25 q 59 98 50 69 q 67 161 67 127 l 67 818 q 60 882 67 853 q 44 931 54 910 q 27 965 35 952 q 17 979 18 977 l 214 979 l 586 281 q 771 711 691 532 q 889 979 852 890 l 1123 979 q 1112 965 1119 977 q 1095 931 1104 952 q 1079 882 1086 910 q 1073 818 1073 853 l 1073 161 q 1084 98 1073 127 q 1108 47 1094 69 q 1133 13 1121 25 q 1146 0 1145 0 l 1011 0 m 157 0 l 157 860 l 554 52 l 577 52 l 957 887 l 957 0 l 832 0 q 842 15 833 2 q 859 49 850 28 q 875 99 868 70 q 882 161 882 127 l 882 604 q 792 414 835 510 q 715 234 750 318 q 655 88 679 151 q 621 0 631 25 l 504 0 q 481 50 497 17 q 443 126 465 84 q 396 218 422 169 q 343 316 370 268 q 254 497 286 423 q 206 604 221 571 l 206 161 q 213 99 206 127 q 228 49 219 70 q 243 15 236 28 q 254 0 251 2 l 157 0 z "},"n":{"ha":907,"x_min":28,"x_max":867,"o":"m 807 0 l 735 0 l 229 639 l 229 161 q 236 99 229 127 q 251 49 243 70 q 267 15 259 28 q 278 0 274 2 l 181 0 l 181 852 l 758 35 l 758 979 l 867 979 q 853 963 863 976 q 833 930 843 950 q 816 880 823 909 q 808 818 808 852 l 807 0 m 678 818 q 670 882 678 853 q 654 931 663 910 q 637 965 646 952 q 626 979 628 977 l 728 979 l 728 174 l 159 979 l 192 979 q 266 890 221 944 q 361 775 311 837 q 464 648 412 713 q 561 528 517 584 q 637 429 606 472 q 678 368 668 387 l 678 818 m 94 979 l 146 904 l 146 0 l 44 0 l 57 17 q 78 55 60 18 q 95 161 95 92 l 95 818 q 86 882 95 853 q 64 931 77 910 q 41 965 52 952 q 28 979 30 977 l 94 979 z "},"o":{"ha":984,"x_min":0,"x_max":969,"o":"m 0 484 q 38 699 0 604 q 144 858 77 793 q 298 958 211 924 q 484 992 385 992 q 673 958 584 992 q 827 858 761 924 q 931 699 894 793 q 969 484 969 604 q 931 279 969 370 q 827 123 894 187 q 673 24 761 59 q 484 -10 584 -10 q 298 24 385 -10 q 144 123 211 59 q 38 279 77 187 q 0 484 0 370 m 82 484 q 108 299 82 375 q 173 173 134 223 q 260 96 213 124 q 352 54 308 69 q 433 38 397 40 q 484 35 469 35 q 688 85 597 38 q 763 137 726 105 q 829 217 800 169 q 876 330 858 264 q 894 484 894 397 q 870 660 894 586 q 810 785 847 735 q 727 866 773 835 q 636 914 681 897 q 552 935 591 930 q 490 940 514 940 l 485 940 l 484 940 q 376 926 443 940 q 243 865 308 912 q 130 727 177 818 q 82 484 82 636 m 129 484 q 171 699 132 604 q 213 778 187 740 q 276 848 238 817 q 366 897 315 879 q 487 915 418 915 q 608 897 556 915 q 699 848 661 879 q 762 778 736 817 q 805 699 788 740 q 847 484 843 604 q 808 274 847 366 q 766 198 791 236 q 701 131 740 161 q 610 84 663 102 q 487 65 557 65 q 365 84 417 65 q 274 131 313 102 q 211 198 236 161 q 169 274 186 236 q 129 484 131 366 m 211 484 q 232 336 211 403 q 289 222 253 269 q 375 148 325 174 q 485 122 425 122 q 596 148 546 122 q 682 222 646 174 q 737 336 718 269 q 756 484 756 403 q 737 638 756 569 q 682 756 718 708 q 596 831 646 805 q 485 857 546 857 q 375 831 425 857 q 289 756 325 805 q 232 638 253 708 q 211 484 211 569 z "},"p":{"ha":698,"x_min":7,"x_max":703,"o":"m 254 371 l 254 161 q 262 100 254 127 q 279 50 269 72 q 299 16 289 28 q 311 0 308 3 l 186 0 l 186 979 l 315 979 q 469 958 398 976 q 592 903 540 940 q 674 807 644 865 q 703 666 703 748 q 672 540 703 594 q 586 448 641 485 q 455 391 530 410 q 291 371 380 371 l 254 371 m 64 818 q 57 882 64 853 q 41 931 50 910 q 23 965 32 952 q 13 979 15 977 l 136 979 l 136 0 l 7 0 q 18 13 8 0 q 37 47 27 25 q 55 98 47 69 q 64 161 64 127 l 64 818 m 254 843 l 254 504 l 293 504 q 439 547 388 504 q 490 666 490 591 q 439 803 490 763 q 293 843 388 843 l 254 843 m 251 427 q 440 445 356 422 q 510 473 475 455 q 570 518 544 490 q 612 584 596 546 q 629 676 629 622 q 612 768 629 730 q 570 834 596 807 q 510 880 544 862 q 440 909 475 899 q 251 929 356 932 l 251 919 q 365 908 316 919 q 448 880 413 897 q 507 841 484 863 q 546 797 530 818 q 577 676 579 743 q 547 557 579 609 q 510 515 534 535 q 452 477 487 494 q 367 450 417 460 q 251 440 318 440 l 251 427 z "},"q":{"ha":986,"x_min":0,"x_max":1009,"o":"m 1006 -52 q 993 -126 1009 -95 q 951 -177 977 -157 q 894 -207 925 -197 q 832 -218 862 -218 q 658 -171 751 -218 q 487 -10 566 -124 l 484 -10 q 298 24 385 -10 q 144 123 211 59 q 38 279 77 187 q 0 484 0 370 q 38 699 0 604 q 144 858 77 793 q 298 958 211 924 q 484 992 385 992 q 673 958 584 992 q 827 858 761 924 q 931 699 894 793 q 969 484 969 604 q 947 327 969 400 q 885 196 925 254 q 791 94 845 137 q 671 25 736 50 q 776 -54 713 -30 q 902 -79 840 -79 q 951 -74 920 -79 q 1006 -52 982 -69 m 213 484 q 233 336 213 403 q 289 222 253 269 q 376 148 326 174 q 485 122 425 122 q 596 148 546 122 q 682 222 646 174 q 737 336 718 269 q 756 484 756 403 q 737 638 756 569 q 682 756 718 708 q 596 831 646 805 q 485 857 546 857 q 376 831 425 857 q 289 756 326 805 q 233 638 253 708 q 213 484 213 569 m 129 484 q 171 699 132 604 q 213 778 187 740 q 276 848 238 817 q 366 897 315 879 q 487 915 418 915 q 608 897 556 915 q 699 848 661 879 q 762 778 736 817 q 805 699 788 740 q 847 484 843 604 q 808 274 847 366 q 766 198 791 236 q 701 131 740 161 q 610 84 663 102 q 487 65 557 65 q 365 84 417 65 q 274 131 313 102 q 211 198 236 161 q 169 274 186 236 q 129 484 131 366 m 549 -3 q 569 -28 549 -3 q 625 -83 589 -54 q 712 -137 661 -112 q 827 -162 763 -162 q 904 -152 875 -162 q 949 -129 934 -142 q 974 -95 967 -114 q 935 -112 955 -105 q 894 -124 917 -119 q 848 -129 872 -129 q 786 -122 815 -129 q 725 -100 756 -115 q 662 -59 694 -85 q 591 5 629 -33 q 568 27 577 18 q 551 40 559 35 q 653 69 594 47 q 766 140 713 90 q 857 272 820 189 q 894 484 894 355 q 870 660 894 586 q 810 785 847 735 q 727 866 773 835 q 636 914 681 897 q 552 935 591 930 q 490 940 514 940 l 484 940 q 376 926 443 940 q 243 865 308 912 q 130 727 177 818 q 82 484 82 636 q 108 299 82 375 q 173 173 134 223 q 260 96 213 124 q 352 54 308 69 q 433 38 397 40 q 484 35 469 35 q 515 28 502 35 q 549 -3 529 20 z "},"r":{"ha":812,"x_min":13,"x_max":825,"o":"m 251 427 q 284 425 266 425 q 322 427 301 425 q 368 432 343 428 l 646 0 l 465 0 q 489 28 479 10 q 499 65 499 47 q 479 122 499 89 q 396 254 438 187 q 311 388 353 320 l 258 388 l 258 161 q 264 100 258 127 q 279 50 271 72 q 297 16 288 28 q 310 0 306 3 l 186 0 l 186 979 l 308 979 q 460 961 390 979 q 581 908 530 944 q 662 815 633 872 q 691 679 691 758 q 679 595 691 636 q 643 519 666 554 q 587 457 619 484 q 517 415 556 430 q 603 277 557 350 q 689 137 649 204 q 725 92 704 114 q 763 52 745 70 q 798 20 781 33 q 825 0 815 7 l 696 0 l 418 440 q 493 465 455 448 q 561 510 530 482 q 610 578 591 537 q 629 676 629 619 q 612 768 629 730 q 570 834 596 807 q 510 880 544 862 q 440 909 475 899 q 251 929 356 932 l 251 919 q 365 908 316 919 q 448 880 413 897 q 507 841 484 863 q 546 797 530 818 q 577 676 579 743 q 547 557 579 609 q 510 515 534 535 q 452 477 487 494 q 367 450 417 460 q 251 440 318 440 l 251 427 m 65 818 q 59 882 65 853 q 43 931 52 910 q 25 965 33 952 q 15 979 17 977 l 136 979 l 136 0 l 13 0 q 23 13 15 0 q 41 47 32 25 q 58 98 50 69 q 65 161 65 127 l 65 818 m 258 843 l 258 520 l 295 520 q 434 567 390 520 q 479 679 479 614 q 436 804 479 765 q 310 843 393 843 l 258 843 z "},"s":{"ha":663,"x_min":10,"x_max":659,"o":"m 457 243 q 443 299 457 274 q 409 342 430 323 q 360 377 388 361 q 301 408 331 393 q 200 463 251 432 q 108 534 149 494 q 41 622 67 574 q 15 731 15 671 q 39 836 15 788 q 107 919 64 884 q 209 973 151 954 q 338 992 268 992 q 500 974 435 992 q 606 932 566 955 l 606 770 l 606 740 q 571 781 596 760 q 515 821 547 803 q 447 850 484 838 q 377 862 410 862 q 256 829 295 862 q 218 755 218 797 q 233 707 218 730 q 272 664 248 684 q 328 625 296 644 q 393 589 360 606 q 497 527 448 559 q 581 456 546 495 q 638 370 617 417 q 659 264 659 323 q 633 151 659 202 q 558 61 606 99 q 446 3 510 23 q 305 -18 382 -18 q 135 0 204 -18 q 25 40 65 18 l 10 221 l 10 241 q 53 197 22 219 q 121 155 84 174 q 200 124 159 136 q 274 112 241 112 q 352 124 318 112 q 410 154 387 136 q 445 196 433 172 q 457 243 457 219 m 321 45 q 341 45 321 44 q 389 54 360 47 q 452 76 418 62 q 515 115 485 90 q 563 175 544 139 q 582 263 582 211 q 558 341 582 303 q 500 410 534 378 q 430 467 467 442 q 366 507 393 492 l 328 529 q 269 561 303 540 q 206 610 236 582 q 155 671 176 638 q 134 743 134 704 q 166 853 134 813 q 239 914 199 892 q 345 947 284 939 l 345 954 q 325 953 345 954 q 277 945 306 952 q 214 923 248 937 q 151 884 181 909 q 103 824 122 860 q 84 736 84 788 q 107 658 84 696 q 165 589 131 621 q 236 531 199 557 q 300 490 273 505 l 338 470 q 397 436 363 457 q 460 387 430 415 q 511 326 490 360 q 532 256 532 293 q 499 146 532 186 q 427 85 465 107 q 321 52 380 60 l 321 45 z "},"t":{"ha":776,"x_min":2,"x_max":773,"o":"m 5 897 q 161 914 79 907 q 330 924 243 920 l 5 924 l 7 979 l 363 979 l 363 0 l 236 0 q 247 13 238 0 q 267 46 256 25 q 286 96 278 67 q 295 161 295 126 l 295 843 l 187 843 q 131 840 156 843 q 84 827 105 837 q 42 798 62 817 q 2 750 22 780 l 5 897 m 450 924 q 617 915 535 920 q 770 897 698 910 l 773 756 q 732 803 751 786 q 692 829 713 820 q 646 841 671 838 q 589 843 621 843 l 484 843 l 484 161 q 493 99 484 127 q 515 49 502 70 q 537 15 527 28 q 551 0 547 2 l 415 0 l 415 979 l 770 979 l 770 924 l 450 924 z "},"u":{"ha":904,"x_min":17,"x_max":889,"o":"m 146 296 q 176 172 146 226 q 255 85 206 117 q 367 47 305 54 q 495 65 430 40 q 382 69 437 60 q 284 106 326 79 q 215 180 241 134 q 189 296 189 226 l 189 979 l 318 979 q 305 963 315 976 q 284 930 295 950 q 266 880 274 909 q 258 818 258 852 l 258 331 q 302 179 258 236 q 437 122 346 122 q 544 142 485 122 q 643 191 602 162 l 643 818 q 635 882 643 853 q 619 931 628 910 q 602 965 611 952 q 592 979 594 977 l 718 979 l 718 0 l 659 0 l 646 77 q 587 39 619 55 q 520 13 554 23 q 455 -4 487 2 q 398 -10 423 -10 q 241 15 305 -10 q 139 85 177 40 q 84 192 100 131 q 67 326 67 253 l 67 818 q 60 882 67 853 q 44 931 54 910 q 27 965 35 952 q 17 979 18 977 l 146 979 l 146 296 m 765 0 l 765 979 l 880 979 q 869 963 877 976 q 854 930 862 950 q 840 880 847 909 q 833 818 833 852 l 833 161 q 841 99 833 127 q 858 49 848 70 q 877 15 868 28 q 889 0 885 2 l 765 0 z "},"v":{"ha":967,"x_min":-23,"x_max":976,"o":"m 428 0 l 84 813 q 52 876 69 847 q 19 928 35 905 q -8 964 3 950 q -23 979 -20 977 l 100 979 l 485 15 l 862 979 l 976 979 q 961 964 972 977 q 933 929 949 950 q 899 878 917 907 q 867 813 882 848 q 738 510 791 638 q 646 289 684 383 q 578 127 607 196 q 524 0 549 59 l 428 0 m 490 129 l 151 979 l 323 979 q 300 945 316 971 q 284 889 284 919 q 296 823 284 858 l 500 296 l 706 823 q 718 889 718 858 q 711 922 718 905 q 696 951 704 939 q 681 971 688 964 q 673 979 674 979 l 823 979 l 490 129 z "},"w":{"ha":1354,"x_min":-13,"x_max":1362,"o":"m 1099 889 q 1085 945 1099 919 q 1063 979 1071 971 l 1208 979 l 954 120 l 686 937 l 418 115 l 152 979 l 320 979 q 296 945 311 971 q 281 890 281 920 q 293 822 281 858 l 430 346 l 644 979 l 740 979 l 950 345 l 1089 822 q 1099 889 1099 857 m 679 803 l 944 0 l 875 0 l 669 574 q 597 372 628 459 q 542 219 566 286 q 500 100 519 152 q 467 0 482 47 l 415 0 l 679 803 m 104 979 l 407 0 l 340 0 l 72 813 q 46 878 60 848 q 19 929 32 907 q -3 964 7 950 q -13 979 -12 977 l 104 979 m 950 0 l 1245 979 l 1362 979 q 1348 963 1359 976 q 1324 929 1337 950 q 1295 878 1310 907 q 1268 813 1280 848 q 1162 497 1205 629 q 1089 270 1119 365 q 1039 112 1059 176 q 1001 0 1019 49 l 950 0 z "},"x":{"ha":964,"x_min":12,"x_max":961,"o":"m 157 979 l 455 500 l 105 0 l 12 0 q 66 56 40 23 q 126 137 92 89 l 370 485 l 142 842 q 74 930 112 894 q 13 979 35 967 l 157 979 m 515 512 l 842 979 l 937 979 q 884 930 919 971 q 817 842 850 890 l 592 529 l 843 137 q 909 49 875 89 q 961 0 942 8 l 837 0 l 515 512 m 157 0 l 480 462 l 770 0 l 594 0 q 612 25 602 5 q 622 64 622 45 q 618 90 622 77 q 602 122 614 104 q 530 236 562 186 q 457 350 497 286 l 295 122 q 275 86 281 100 q 269 59 269 72 q 280 28 269 44 q 308 0 291 12 l 157 0 m 492 552 l 224 979 l 403 979 q 379 954 395 974 q 363 915 363 934 q 367 889 363 904 q 383 855 371 873 l 383 857 q 445 759 418 800 q 509 663 472 718 l 646 857 q 664 893 658 877 q 671 920 671 909 q 661 953 671 937 q 634 979 651 969 l 790 979 l 492 552 z "},"y":{"ha":914,"x_min":-7,"x_max":919,"o":"m 95 842 q 38 925 67 887 q -7 979 10 964 l 115 979 l 438 422 l 438 0 l 305 0 q 315 13 306 0 q 335 47 325 25 q 353 98 345 69 q 361 161 361 127 l 361 388 l 95 843 l 95 842 m 469 464 l 174 979 l 326 979 q 315 952 323 971 q 306 915 306 934 q 323 855 306 889 l 321 857 l 484 592 l 649 855 l 648 855 q 663 914 663 890 q 653 954 663 932 q 639 979 643 976 l 775 979 l 469 464 m 818 979 l 919 979 q 902 963 914 976 q 874 932 890 950 q 840 890 858 914 q 807 842 822 867 l 807 843 l 552 390 l 552 161 q 561 99 552 127 q 581 49 569 70 q 602 15 592 28 q 614 0 611 2 l 492 0 l 492 422 l 818 979 z "},"z":{"ha":783,"x_min":-2,"x_max":770,"o":"m 69 0 l 733 979 l 770 979 l 770 887 q 724 813 756 862 q 645 699 691 765 q 541 554 599 634 q 418 383 484 474 l 243 136 l 586 136 q 643 139 617 136 q 689 151 668 142 q 730 179 711 161 q 770 228 750 197 l 766 95 q 535 67 661 75 q 271 55 408 59 l 766 55 l 766 0 l 69 0 m 18 0 l -2 0 l 0 109 q 63 206 18 141 q 167 357 107 271 q 299 543 228 443 q 442 743 370 643 l 440 743 q 476 792 462 773 q 512 843 490 812 l 184 843 q 127 841 152 843 q 81 829 102 838 q 41 803 60 820 q 0 756 22 786 l 2 885 q 234 913 102 904 q 514 929 366 922 l 2 929 l 3 979 l 681 979 l 18 0 z "}}}
